<svg height="512pt" viewBox="0 -10 512.00159 512" width="512pt" xmlns="http://www.w3.org/2000/svg"><path d="m400.566406 484.800781-35.683594-121.3125-29.273437-33.003906-57.464844 46.300781 42.417969 108.015625zm0 0" fill="#faccae"/><path d="m368.261719 374.96875-3.375-11.480469-29.277344-33-57.464844 46.296875 17.160157 43.691406c26.410156-14.777343 50.742187-29.960937 72.957031-45.507812zm0 0" fill="#f6af8c"/><path d="m111.433594 484.800781 35.683594-121.3125 29.273437-33.003906 57.464844 46.300781-42.417969 108.015625zm0 0" fill="#faccae"/><path d="m143.738281 374.96875 3.375-11.480469 29.277344-33 57.464844 46.296875-17.160157 43.691406c-26.410156-14.777343-50.742187-29.960937-72.957031-45.507812zm0 0" fill="#f6af8c"/><path d="m256 59.570312c-171.808594-167.90625-456.398438 103.621094-8.4375 343.613282 5.265625 2.820312 11.609375 2.820312 16.875 0 447.960938-239.992188 163.367188-511.519532-8.4375-343.613282zm0 0" fill="#ed697f"/><path d="m157.484375 8.90625c-151.847656-20.792969-277.484375 197.359375 90.078125 394.277344 5.265625 2.820312 11.609375 2.820312 16.875 0 3.914062-2.09375 7.761719-4.191406 11.5625-6.292969-321.199219-177.492187-247.453125-369.917969-118.515625-387.984375zm0 0" fill="#e43c55"/><path d="m396.207031 484.800781h57.847657l-68.328126-173.996093c-5.433593-13.839844-21.058593-20.652344-34.898437-15.21875-13.839844 5.433593-20.652344 21.058593-15.21875 34.898437zm0 0" fill="#faccae"/><path d="m115.792969 484.800781h-57.847657l68.328126-173.996093c5.433593-13.839844 21.058593-20.652344 34.898437-15.21875 13.839844 5.433593 20.652344 21.058593 15.21875 34.898437zm0 0" fill="#faccae"/><path d="m155.464844 192.535156v16.828125c0 4.144531 3.355468 7.5 7.5 7.5 4.140625 0 7.5-3.355469 7.5-7.5v-16.828125c0-4.144531-3.359375-7.5-7.5-7.5-4.144532 0-7.5 3.355469-7.5 7.5zm0 0"/><path d="m341.445312 192.535156v16.828125c0 4.144531 3.359376 7.5 7.5 7.5 4.140626 0 7.5-3.355469 7.5-7.5v-16.828125c0-4.144531-3.359374-7.5-7.5-7.5-4.140624 0-7.5 3.355469-7.5 7.5zm0 0"/><path d="m273.257812 203.257812c-4.214843 4.820313-10.523437 7.589844-17.304687 7.589844s-13.085937-2.769531-17.304687-7.589844c-2.726563-3.121093-7.464844-3.4375-10.582032-.710937-3.117187 2.722656-3.4375 7.460937-.710937 10.582031 7.066406 8.082032 17.488281 12.71875 28.597656 12.71875s21.535156-4.636718 28.597656-12.71875c2.726563-3.121094 2.410157-7.855468-.710937-10.582031-3.117188-2.726563-7.855469-2.410156-10.582032.710937zm0 0"/><path d="m255.953125 49.277344c-47.726563-43.671875-108.046875-59.597656-162.660156-42.609375-47.585938 14.808593-81.523438 51.832031-90.78125 99.042969-6.328125 32.257812-.644531 68.085937 16.429687 103.613281 18.644532 38.789062 50.355469 77.144531 94.300782 114.054687l-33.574219 85.5c-1.515625 3.855469.382812 8.207032 4.238281 9.722656 3.851562 1.511719 8.207031-.386718 9.722656-4.242187 0 0 39.566406-100.757813 39.578125-100.785156 3.832031-9.761719 15.289063-14.863281 25.175781-10.980469 9.835938 3.859375 14.84375 15.339844 10.980469 25.175781l-9.441406 24.046875c-1.265625 3.214844-.109375 6.976563 2.742187 8.929688 18.074219 12.386718 36.703126 23.957031 55.703126 34.871094l-32.085938 81.710937h-117.378906l13.84375-35.253906c1.511718-3.855469-.386719-8.207031-4.242188-9.722657-3.855468-1.511718-8.207031.386719-9.722656 4.238282 0 0-17.84375 45.441406-17.863281 45.496094-1.90625 4.851562 1.777343 10.238281 6.980469 10.238281h133.492187c3.085937 0 5.855469-1.886719 6.980469-4.757813l33.1875-84.515625c4.097656 2.269531 8.230468 4.527344 12.414062 6.769531 7.433594 3.980469 16.53125 3.980469 23.960938 0 4.183594-2.242187 8.320312-4.5 12.414062-6.769531l33.1875 84.515625c1.128906 2.871094 3.898438 4.757813 6.980469 4.757813h133.511719c5.382812 0 9.09375-5.90625 6.761718-10.746094l-62.125-158.207031c53.511719-44.9375 88.605469-91.558594 104.320313-138.628906 14.132813-42.339844 11.613281-82.664063-7.285156-116.613282-2.011719-3.617187-6.578125-4.917968-10.199219-2.902344-3.617188 2.011719-4.917969 6.578126-2.902344 10.199219 16.792969 30.171875 18.925782 66.328125 6.160156 104.566407-14.453124 43.292968-46.691406 86.53125-95.882812 128.632812-1.171875-2.996094-2.65625-5.832031-4.578125-8.421875-9.527344-12.84375-27.253906-17.472656-41.835937-10.90625-16.484376 7.421875-24.492188 27.113281-17.875 43.953125l7.25 18.46875c-1.898438 1.277344-51.28125 32.335938-74.984376 44.878906-3.066406 1.640625-6.726562 1.640625-9.792968 0-25.683594-13.757812-50.808594-28.609375-74.984375-44.878906 0 0 7.25-18.46875 7.25-18.46875 6.820312-17.371094-2.058594-37.789062-19.457031-44.621094-17.445313-6.847656-37.785157 2.054688-44.621094 19.457032l-.210938.539062c-40.300781-34.511719-69.398437-70.066406-86.574218-105.800781-15.664063-32.585938-20.929688-65.171875-15.230469-94.230469 8.179687-41.714844 38.28125-74.464844 80.519531-87.605469 51.285156-15.953125 108.46875.484375 152.964844 43.96875 2.914062 2.847657 7.566406 2.847657 10.484375 0 33.621093-32.863281 74.699219-50.578125 115.714843-49.882812 34.203126.578125 66.566407 14.242187 88.792969 37.488281 2.859375 2.996094 7.609375 3.101562 10.601563.238281 2.992187-2.863281 3.101562-7.609375.238281-10.601562-24.980469-26.121094-61.199219-41.472657-99.378906-42.121094-42.894531-.726563-85.691407 16.695313-121.214844 49.199219zm93.292969 311.46875c2.882812-1.976563 4.019531-5.675782 2.742187-8.925782 0 0-9.441406-24.042968-9.445312-24.050781-3.867188-9.847656 1.164062-21.320312 10.980469-25.175781 9.738281-3.824219 21.328124 1.238281 25.164062 10.945312.003906.011719.011719.023438.015625.035157l64.304687 163.753906h-117.378906l-32.085937-81.707031c.347656-.203125 37.957031-22.71875 55.703125-34.875zm0 0"/></svg>