<svg id="Layer_1" enable-background="new 0 0 512 512" viewBox="0 0 512 512" xmlns="http://www.w3.org/2000/svg"><g clip-rule="evenodd" fill-rule="evenodd"><g><g><path d="m296.785 412.06 81.263 46.917c.699-7.601 1.626-14.094 2.915-19.722 1.351-6.759 3.604-12.744 7.104-18.048 3.651-5.682 8.486-10.14 14.943-14.192.007-.004.014-.009.02-.013l42.848-26.866c9.757-6.117 16.513-14.28 19.494-25.406l36.843-137.493c3.287-12.269-4.061-24.995-16.331-28.284-12.268-3.289-24.998 4.061-28.285 16.329l-25.658 95.751c-.106-.198-.216-.396-.328-.592-6.968-12.18-22.682-16.457-34.862-9.49l-77.418 44.291c-9.146 7.008-14.523 16.296-16.037 27.72z" fill="#ffd6bd"/><path d="m416.269 325.16c10.474-5.998 15.101-18.419 11.778-29.528 1.349 1.429 2.551 3.034 3.566 4.809 6.977 12.196 2.712 27.891-9.489 34.861-15.078 8.612-30.06 17.355-45.101 26.039-2.8 1.616-6.412.649-8.028-2.151s-.648-6.412 2.151-8.028c15.011-8.666 29.994-17.337 45.123-26.002z" fill="#f9c6aa"/><path d="m287.596 394.098 99.335 57.351c2.424 1.4 3.261 4.526 1.862 6.948l-10.6 18.359c-1.398 2.422-4.524 3.261-6.948 1.861l-99.335-57.351c-2.424-1.399-3.261-4.526-1.862-6.948l10.6-18.359c1.398-2.422 4.524-3.261 6.948-1.861z" fill="#64b5f6"/></g><g><path d="m215.215 412.06-81.263 46.917c-.698-7.601-1.626-14.094-2.915-19.722-1.351-6.759-3.604-12.744-7.104-18.048-3.651-5.682-8.486-10.14-14.943-14.192-.007-.004-.014-.009-.02-.013l-42.848-26.866c-9.757-6.117-16.513-14.28-19.494-25.406l-36.843-137.493c-3.287-12.269 4.061-24.995 16.331-28.284 12.268-3.289 24.998 4.061 28.285 16.329l25.658 95.751c.106-.198.216-.396.328-.592 6.967-12.18 22.682-16.457 34.862-9.49l77.417 44.291c9.146 7.008 14.523 16.296 16.037 27.72z" fill="#ffd6bd"/><path d="m95.731 325.16c-10.474-5.998-15.101-18.419-11.778-29.528-1.349 1.429-2.551 3.034-3.566 4.809-6.977 12.196-2.712 27.891 9.489 34.861 15.078 8.612 30.06 17.355 45.101 26.039 2.8 1.616 6.412.649 8.028-2.151s.648-6.412-2.151-8.028c-15.011-8.666-29.994-17.337-45.123-26.002z" fill="#f9c6aa"/><path d="m224.404 394.098-99.335 57.351c-2.424 1.4-3.261 4.526-1.862 6.948l10.6 18.359c1.398 2.422 4.524 3.261 6.948 1.861l99.335-57.351c2.424-1.399 3.261-4.526 1.862-6.948l-10.6-18.359c-1.398-2.422-4.524-3.261-6.948-1.861z" fill="#64b5f6"/></g><path d="m272.021 58.965c34.951-34.951 92.256-35.07 127.327 0 35.017 35.017 35.019 92.312.002 127.329-47.786 47.786-95.563 95.567-143.349 143.354-47.784-47.784-95.567-95.567-143.351-143.352-35.015-35.016-35.015-92.312 0-127.327 35.017-35.018 92.311-35.02 127.328-.002l16.02 16.021z" fill="#fc685b"/><g><path d="m144.789 218.434-21.012-21.012c8.712-24.537 32.204-42.234 59.631-42.234 34.785 0 63.245 28.46 63.245 63.246z" fill="#64b5f6"/><circle cx="183.409" cy="121.006" fill="#ffd6bd" r="34.182"/></g><g><path d="m388.223 197.42-21.013 21.014h-101.864c0-34.785 28.461-63.246 63.246-63.246 27.427 0 50.918 17.696 59.631 42.232z" fill="#64b5f6"/><circle cx="328.592" cy="121.006" fill="#ffd6bd" r="34.182"/></g><g><path d="m306.568 277.435-50.567 50.569-50.567-50.568c12.978-12.977 30.878-21.032 50.568-21.032 19.689 0 37.589 8.054 50.566 21.031z" fill="#ffda2d"/><circle cx="256" cy="222.221" fill="#ffd6bd" r="34.182"/></g></g><path d="m217.68 280.027c10.268-9.98 23.881-15.59 38.342-15.59 14.413 0 28.026 5.61 38.342 15.59l-38.342 38.339zm-99.387-215.37c15.45-15.43 36.034-23.919 58.031-23.919 21.95 0 42.581 8.489 57.984 23.919l16.015 16.021c3.156 3.121 8.196 3.121 11.352 0l16.015-16.021c31.983-31.99 84.032-31.99 116.015 0 31.983 31.98 31.983 84.031 0 116.011l-2.355 2.35c-7.866-13.581-19.924-24.12-34.102-30.14 8.902-7.741 14.555-19.139 14.555-31.841 0-23.259-18.935-42.179-42.157-42.179-23.269 0-42.204 18.92-42.204 42.179 0 12.701 5.653 24.091 14.555 31.831-13.801 5.849-25.624 15.969-33.49 29.09-3.957-1.231-8.149-1.889-12.482-1.889-4.381 0-8.573.669-12.529 1.889-7.866-13.12-19.689-23.24-33.49-29.09 8.902-7.741 14.555-19.13 14.555-31.831 0-23.259-18.935-42.179-42.157-42.179-23.269 0-42.204 18.92-42.204 42.179 0 12.701 5.653 24.1 14.555 31.841-14.178 6.02-26.236 16.571-34.103 30.14l-2.355-2.35c-31.987-31.981-31.987-84.031-.004-116.011zm179.698 161.811c-1.083 10.97-6.406 20.7-14.319 27.57 8.102 3.429 15.591 8.379 21.997 14.659l42.204-42.229zm-15.827-4.221c0 14.441-11.729 26.19-26.142 26.19-14.461 0-26.189-11.75-26.189-26.19 0-14.428 11.729-26.179 26.189-26.179 14.413 0 26.142 11.751 26.142 26.179zm97.362-27.4c-9.138-19.099-28.591-31.629-49.882-31.629-19.218 0-37.023 10.16-47.009 26.339 6.547 5.33 11.446 12.6 13.848 20.911h67.404zm-49.882-47.63c14.414 0 26.142-11.74 26.142-26.181 0-14.428-11.729-26.179-26.142-26.179-14.46 0-26.189 11.75-26.189 26.179 0 14.441 11.728 26.181 26.189 26.181zm-100.235 42.34c-10.033-16.179-27.838-26.339-47.009-26.339-21.338 0-40.791 12.53-49.929 31.629l15.638 15.621h67.404c2.403-8.311 7.348-15.581 13.896-20.911zm-47.009-42.34c14.414 0 26.142-11.74 26.142-26.181 0-14.428-11.729-26.179-26.142-26.179-14.46 0-26.189 11.75-26.189 26.179 0 14.441 11.729 26.181 26.189 26.181zm-18.276 79.251 42.204 42.229c6.453-6.28 13.895-11.22 21.997-14.659-7.866-6.871-13.189-16.601-14.272-27.57zm240.884-34.49c38.248-38.222 38.248-100.41 0-138.641-38.248-38.221-100.423-38.221-138.624 0l-10.363 10.37-10.41-10.37c-18.417-18.442-43.052-28.602-69.288-28.602s-50.871 10.16-69.335 28.613c-38.201 38.22-38.201 100.408 0 138.639l143.334 143.35c1.507 1.501 3.58 2.34 5.7 2.34 2.119 0 4.145-.839 5.652-2.34zm-265.754 278.279-7.678-13.31 94.3-54.439 7.678 13.31zm-26.048-70-42.816-26.87c-8.479-5.31-13.707-12.079-16.015-20.7l-36.882-137.49c-2.12-8.039 2.638-16.329 10.693-18.49 3.862-1.029 7.96-.49 11.446 1.54 3.486 2.02 5.982 5.271 7.066 9.141l24.87 92.929c-2.826 6.82-3.344 14.361-1.319 21.641 2.355 8.67 7.913 15.879 15.638 20.319l41.356 23.66c3.862 2.19 8.761.861 10.928-2.979 2.214-3.831.848-8.721-2.967-10.911l-41.356-23.66c-4.051-2.309-6.971-6.09-8.196-10.629-1.225-4.541-.612-9.27 1.696-13.31s6.076-6.94 10.598-8.181c4.569-1.24 9.279-.649 13.33 1.659l76.919 44.01c7.254 5.691 11.352 12.931 12.576 22.102l4.239 32.039-66.792 38.581c-3.721-15.2-11.682-26.06-25.012-34.401zm125.058-8.27c-3.58-6.251-11.587-8.4-17.852-4.79l-.377.23-3.391-25.49c-1.79-13.57-8.243-24.68-19.124-33.02-.283-.209-.566-.41-.895-.589l-77.39-44.291c-7.772-4.429-16.816-5.569-25.483-3.209-3.485.949-6.736 2.429-9.656 4.35l-21.95-81.93c-2.167-8-7.301-14.701-14.508-18.861-7.207-4.159-15.591-5.27-23.599-3.13-16.533 4.44-26.425 21.52-21.997 38.082l36.882 137.489c3.344 12.53 11.069 22.661 22.939 30.111l42.863 26.869c10.975 6.891 16.628 15.57 18.841 29.291l-2.496 1.45c-3.015 1.75-5.182 4.571-6.076 7.951-.942 3.38-.471 6.9 1.272 9.93l10.598 18.359c2.449 4.19 6.83 6.541 11.352 6.541 2.214 0 4.475-.57 6.548-1.761l99.34-57.349c6.218-3.601 8.384-11.619 4.757-17.87zm256.24-176.79-36.882 137.49c-2.308 8.621-7.536 15.39-15.968 20.7l-42.863 26.859c-13.33 8.352-21.29 19.211-24.965 34.411l-66.839-38.581 4.239-32.039c1.225-9.171 5.323-16.411 12.577-22.102l76.919-44.01c4.051-2.309 8.761-2.899 13.33-1.659 4.522 1.24 8.29 4.14 10.645 8.181 4.758 8.39 1.837 19.139-6.547 23.939l-41.356 23.66c-3.815 2.189-5.181 7.08-2.968 10.911 2.214 3.84 7.066 5.169 10.928 2.979l41.356-23.66c14.79-8.47 20.678-26.601 14.319-41.96l24.917-92.929c1.036-3.87 3.533-7.121 7.018-9.141 3.533-2.029 7.584-2.569 11.446-1.54 8.056 2.161 12.814 10.452 10.694 18.491zm-121.761 255.06 7.678-13.31-94.3-54.439-7.678 13.31zm115.214-289c-8.008-2.14-16.392-1.029-23.599 3.13-7.206 4.16-12.341 10.861-14.46 18.861l-21.997 81.93c-2.92-1.921-6.17-3.4-9.656-4.35-8.667-2.37-17.711-1.22-25.483 3.209l-77.39 44.291c-.33.179-.612.379-.895.589-10.881 8.341-17.287 19.45-19.124 33.02l-3.344 25.49-.424-.23c-6.217-3.61-14.272-1.461-17.852 4.79l-10.598 18.361c-3.627 6.251-1.46 14.269 4.757 17.87l99.34 57.349c2.072 1.191 4.333 1.761 6.547 1.761 4.522 0 8.95-2.351 11.352-6.541l10.598-18.359c3.627-6.251 1.46-14.271-4.804-17.881l-2.496-1.45c2.214-13.721 7.866-22.4 18.841-29.291l42.864-26.859c11.87-7.459 19.595-17.59 22.986-30.12l36.835-137.489c4.426-16.561-5.418-33.641-21.998-38.081z"/></g></svg>