<svg id="Capa_1" enable-background="new 0 0 512 512" height="512" viewBox="0 0 512 512" width="512" xmlns="http://www.w3.org/2000/svg"><g><g><g><path d="m420.846 275.841c0 50.378-27.701 96.243-23.139 130.669-35.368 38.585-86.187 62.779-142.648 62.779s-107.28-24.193-142.648-62.779c-31.551-34.426-5.138-80.291-5.138-130.669s-26.413-96.243 5.138-130.669c35.368-38.585 86.187-62.779 142.648-62.779s107.28 24.193 142.648 62.779c0 58.029 23.139 80.291 23.139 130.669z" fill="#c8effe"/><path d="m297.154 464.687c-13.558 3.012-27.647 4.601-42.108 4.601-56.451 0-107.27-24.193-142.647-62.779-31.541-34.426-5.125-80.291-5.125-130.669s-26.417-96.243 5.125-130.669c35.377-38.585 86.197-62.779 142.647-62.779 14.461 0 28.549 1.589 42.108 4.601-39.37 8.731-74.228 29.471-100.54 58.177-31.551 34.426-50.8 80.291-50.8 130.669s19.249 96.243 50.8 130.669c26.312 28.708 61.17 49.447 100.54 58.179z" fill="#99e6fc"/><path d="m251.597 308.324v.373c0 17.934-14.539 32.483-32.483 32.483h-20.357c-14.893 0-27.44 10.017-31.286 23.683-.775 2.796-1.197 5.739-1.197 8.79v.373c0 17.944-14.539 32.483-32.473 32.483h-21.387c-31.551-34.426-50.8-80.291-50.8-130.669s19.249-96.243 50.8-130.669h41.332c12.46 0 23.291 7.024 28.726 17.335 2.394 4.523 3.748 9.673 3.748 15.148v.373c0 8.967-3.64 17.09-9.507 22.957-5.121 5.121-11.92 8.535-19.513 9.33-1.128.128-2.286.186-3.453.186-17.944 0-32.483 14.549-32.483 32.483v.373c0 15.207 10.448 27.97 24.556 31.512 2.541.638 5.19.971 7.927.971h65.369c17.941.002 32.481 14.541 32.481 32.485z" fill="#9be69d"/><path d="m145.818 275.841c0 32.11 7.819 62.376 21.652 89.022-.775 2.796-1.197 5.739-1.197 8.79v.373c0 17.944-14.539 32.483-32.473 32.483h-21.387c-31.551-34.426-50.8-80.291-50.8-130.669s19.249-96.243 50.8-130.669h41.332c12.46 0 23.291 7.024 28.726 17.335-10.527 14.539-19.082 30.609-25.272 47.807-1.128.128-2.286.186-3.453.186-17.944 0-32.483 14.549-32.483 32.483v.373c0 15.207 10.448 27.97 24.556 31.512v.974z" fill="#6fd7a3"/><path d="m448.507 275.841c0 50.378-19.249 96.243-50.8 130.669h-45.404c-17.895 0-32.405-14.51-32.405-32.405v-.52c0-17.895 14.51-32.405 32.405-32.405h21.309c17.905 0 32.415-14.51 32.415-32.415v-.52c0-17.895-14.51-32.405-32.415-32.405h-4.434c-17.895 0-32.405-14.51-32.405-32.405v-.52c0-17.905-14.51-32.415-32.405-32.415-8.947 0-17.051-3.63-22.918-9.497-5.867-5.857-9.497-13.961-9.497-22.908v-.52c0-17.895 14.51-32.405 32.415-32.405h93.339c31.552 34.428 50.8 80.293 50.8 130.671z" fill="#9be69d"/><path d="m257.364 421.299c0 9.996-6.173 18.551-14.923 22.046-2.725 1.098-5.698 1.697-8.812 1.697-13.109 0-23.743-10.634-23.743-23.743 0-.537.016-1.066.062-1.588.81-12.37 11.109-22.148 23.681-22.148 13.109 0 23.735 10.626 23.735 23.736z" fill="#9be69d"/><path d="m242.441 443.345c-2.725 1.098-5.698 1.697-8.812 1.697-13.109 0-23.743-10.634-23.743-23.743 0-.537.016-1.066.062-1.588 9.948 8.96 20.839 16.893 32.493 23.634z" fill="#6fd7a3"/></g><g><path d="m488.468 42.704h-133.934c-8.852 0-16.027 7.176-16.027 16.028v85.279c0 8.852 7.176 16.027 16.027 16.027h16.873l-4.768 23.372c-1.404 6.881 5.763 12.338 12.022 9.155l63.971-32.527h45.835c8.852 0 16.027-7.176 16.027-16.027v-85.279c.001-8.852-7.175-16.028-16.026-16.028z" fill="#e8edf2"/><path d="m370.979 160.042h-16.442c-8.853 0-16.03-7.177-16.03-16.03v-85.28c0-8.843 7.177-16.02 16.03-16.02h16.442c-8.853 0-16.03 7.177-16.03 16.02v85.28c0 8.853 7.176 16.03 16.03 16.03z" fill="#d9e7ec"/></g><g><path d="m364.121 258.107h-133.934c-8.852 0-16.027 7.176-16.027 16.027v85.279c0 8.852 7.176 16.027 16.027 16.027h16.873l-4.768 23.372c-1.404 6.881 5.763 12.338 12.022 9.155l63.971-32.527h45.835c8.852 0 16.027-7.176 16.027-16.027v-85.279c.001-8.851-7.175-16.027-16.026-16.027z" fill="#ffe177"/><path d="m246.632 375.444h-16.442c-8.853 0-16.03-7.177-16.03-16.03v-85.28c0-8.843 7.177-16.02 16.03-16.02h16.442c-8.853 0-16.03 7.177-16.03 16.02v85.28c-.001 8.853 7.176 16.03 16.03 16.03z" fill="#ffd15b"/></g><g><path d="m23.532 182.711h133.934c8.852 0 16.027 7.176 16.027 16.027v85.279c0 8.852-7.176 16.028-16.027 16.028h-16.873l4.768 23.372c1.404 6.881-5.763 12.338-12.022 9.155l-63.971-32.527h-45.836c-8.852 0-16.028-7.176-16.028-16.028v-85.279c.001-8.851 7.177-16.027 16.028-16.027z" fill="#fe646f"/><path d="m39.977 300.048h-16.442c-8.853 0-16.03-7.177-16.03-16.03v-85.28c0-8.843 7.177-16.02 16.03-16.02h16.442c-8.853 0-16.03 7.177-16.03 16.02v85.28c0 8.853 7.176 16.03 16.03 16.03z" fill="#fd4755"/></g></g><g><path d="m488.47 35.2h-21.04c-4.142 0-7.5 3.358-7.5 7.5s3.358 7.5 7.5 7.5h21.04c4.703 0 8.53 3.827 8.53 8.53v85.28c0 4.703-3.827 8.53-8.53 8.53h-45.84c-1.181 0-2.346.279-3.399.814l-63.976 32.523c-.159.082-.493.253-.932-.082-.446-.339-.367-.725-.334-.885l4.77-23.37c.45-2.207-.115-4.499-1.539-6.244-1.424-1.744-3.558-2.756-5.81-2.756h-16.88c-4.698 0-8.52-3.827-8.52-8.53v-85.28c0-4.703 3.822-8.53 8.52-8.53h77.9c4.142 0 7.5-3.358 7.5-7.5s-3.358-7.5-7.5-7.5h-77.9c-12.969 0-23.52 10.555-23.52 23.53v31.006c-24.07-9.856-49.563-14.85-75.95-14.85-56.192 0-110.199 23.771-148.173 65.217-9.861 10.755-18.51 22.553-25.782 35.108h-57.575c-12.974-.001-23.53 10.555-23.53 23.529v24.56c0 4.142 3.358 7.5 7.5 7.5s7.5-3.358 7.5-7.5v-24.56c0-4.704 3.827-8.53 8.53-8.53h133.94c4.698 0 8.52 3.827 8.52 8.53v85.28c0 4.698-3.822 8.52-8.52 8.52h-16.88c-2.252 0-4.385 1.012-5.809 2.756-1.425 1.744-1.99 4.036-1.54 6.243l4.769 23.376c.036.178.112.547-.331.884s-.781.166-.94.085l-63.97-32.53c-1.053-.536-2.218-.815-3.399-.815h-45.84c-4.703 0-8.53-3.822-8.53-8.52v-25.719c0-4.142-3.358-7.5-7.5-7.5s-7.5 3.358-7.5 7.5v25.72c0 12.969 10.556 23.52 23.53 23.52h33.074c6.144 38.905 23.443 74.756 50.286 104.036 37.97 41.451 91.976 65.224 148.17 65.224 8.605 0 17.289-.552 25.81-1.64 4.109-.524 7.014-4.281 6.489-8.39-.524-4.109-4.282-7.02-8.39-6.489-7.894 1.008-15.938 1.519-23.91 1.519-46.017 0-90.44-17.24-124.407-47.789h3.142c22.046 0 39.981-17.936 39.981-39.982v-.372c0-13.775 11.207-24.981 24.982-24.981h7.901v10.737c0 12.973 10.554 23.527 23.527 23.527h7.689l-1.477 7.241c-.917-.081-1.84-.124-2.769-.124-17.225 0-31.239 14.014-31.239 31.239 0 17.226 14.014 31.239 31.239 31.239 17.226 0 31.239-14.014 31.239-31.239 0-3.264-.519-6.467-1.497-9.52l50.813-25.837c5.028 16.353 20.186 28.071 38.12 28.071h27.188c-19.557 17.625-42.676 30.972-67.728 38.986-3.945 1.262-6.12 5.483-4.858 9.429 1.019 3.186 3.967 5.217 7.142 5.217.757 0 1.527-.116 2.287-.358 33.189-10.617 63.237-29.88 86.894-55.706 34.043-37.139 52.791-85.345 52.791-135.738 0-35.476-9.287-70.046-26.919-100.509l15.326-7.791h44.043c12.974 0 23.53-10.556 23.53-23.53v-85.28c.001-12.975-10.555-23.53-23.529-23.53zm-157.46 70.856v31.615h-26.645c-22.007 0-39.912 17.9-39.912 39.902v.522c0 10.664 4.154 20.683 11.692 28.209 7.546 7.546 17.568 11.703 28.219 11.703 13.736 0 24.912 11.175 24.912 24.911v.522c0 2.432.217 4.824.642 7.167h-99.731c-10.974 0-20.216 7.554-22.804 17.734h-26.393v-61.084c.345-.322.699-.632 1.034-.968 7.543-7.557 11.697-17.595 11.697-28.265v-.372c0-22.046-17.936-39.982-39.981-39.982h-23.091c33.97-30.547 78.395-47.785 124.411-47.785 26.506 0 52.032 5.442 75.95 16.171zm-173.54 69.154h-58.785c5.105-7.916 10.823-15.455 17.095-22.539h37.961c13.775 0 24.981 11.207 24.981 24.981v.372c0 2.825-.471 5.578-1.367 8.173-4.171-6.595-11.523-10.987-19.885-10.987zm41.289 158.466c-22.046 0-39.982 17.936-39.982 39.981v.372c0 13.775-11.207 24.982-24.981 24.982h-18.033c-22.529-25.437-37.444-56-43.545-89.109l57.726 29.355c2.301 1.169 4.769 1.745 7.222 1.745 3.396 0 6.761-1.104 9.602-3.267 4.892-3.725 7.169-9.782 5.942-15.813l-2.934-14.38h7.696c12.969 0 23.52-10.551 23.52-23.52v-.679h25.669v50.335h-7.902zm31.428 34.265c-4.702 0-8.527-3.825-8.527-8.527v-85.279c0-4.702 3.825-8.528 8.527-8.528h133.934c4.702 0 8.527 3.826 8.527 8.528v85.279c0 4.702-3.825 8.527-8.527 8.527h-45.835c-1.182 0-2.346.279-3.399.814l-63.971 32.527c-.162.082-.498.253-.942-.085s-.369-.708-.333-.886l4.768-23.372c.45-2.207-.115-4.499-1.54-6.243-1.424-1.745-3.557-2.756-5.809-2.756h-16.873zm3.442 69.594c-8.954 0-16.239-7.285-16.239-16.239s7.285-16.239 16.239-16.239c.563 0 1.121.035 1.674.092.95 3.111 2.859 5.908 5.582 7.982 2.45 1.865 5.289 2.939 8.201 3.201.511 1.589.782 3.259.782 4.964.001 8.955-7.284 16.239-16.239 16.239zm207.391-161.695c0 45.54-16.554 89.144-46.671 123.171h-42.044c-10.657 0-19.741-6.629-23.295-16.07h35.111c12.973 0 23.527-10.554 23.527-23.527v-13.29c15.302-5.759 25.878-20.594 25.878-37.359v-.522c0-16.846-10.687-31.746-26.118-37.438-1.623-11.401-11.445-20.198-23.287-20.198h-18.8c-.693-2.306-1.044-4.703-1.044-7.167v-.522c0-22.007-17.904-39.911-39.912-39.911-6.645 0-12.899-2.596-17.617-7.313-4.704-4.696-7.294-10.946-7.294-17.598v-.522c0-13.731 11.175-24.902 24.912-24.902h28.303c3.456 8.7 11.95 14.87 21.862 14.87h7.695l-2.934 14.375c-1.228 6.033 1.054 12.096 5.953 15.821 2.839 2.159 6.199 3.26 9.589 3.259 2.456 0 4.927-.578 7.227-1.75l33.654-17.108c16.574 28.349 25.305 60.598 25.305 93.701zm-53.372 11.858c6.615 4.539 10.878 12.146 10.878 20.544v.522c0 8.401-4.263 16.012-10.878 20.553z"/><path d="m66.811 278.887c3.022 0 5.871-1.84 7.01-4.833l3.772-9.903h25.847l3.729 9.882c1.462 3.875 5.788 5.832 9.665 4.369 3.875-1.462 5.832-5.79 4.369-9.665l-22.326-59.161c-.026-.069-.054-.138-.082-.207-1.373-3.334-4.588-5.487-8.193-5.487-.003 0-.007 0-.01 0-3.609.004-6.824 2.165-8.19 5.505-.023.057-.046.113-.067.17l-22.531 59.159c-1.474 3.871.468 8.204 4.339 9.678.878.335 1.78.493 2.668.493zm23.765-48.824 7.203 19.088h-14.473z"/><path d="m258.104 301.24h48.709c-.812 5.553-2.904 13.749-8.227 22.241-2.367-3.802-4.301-7.875-5.767-12.227-1.324-3.925-5.579-6.034-9.503-4.712-3.925 1.323-6.035 5.578-4.712 9.503 1.942 5.761 5.056 12.558 10.027 19.437-4.019 3.756-8.88 7.345-14.809 10.537-3.647 1.963-5.013 6.511-3.049 10.159 1.354 2.517 3.939 3.947 6.61 3.947 1.2 0 2.417-.289 3.548-.897 7.026-3.782 12.858-8.023 17.707-12.482 4.817 4.45 10.622 8.706 17.639 12.482 1.13.608 2.348.897 3.548.897 2.671 0 5.256-1.43 6.611-3.947 1.963-3.647.597-8.195-3.05-10.159-5.605-3.016-10.531-6.505-14.777-10.44 9.442-13.019 12.426-26.215 13.33-34.338h14.266c4.142 0 7.5-3.358 7.5-7.5s-3.358-7.5-7.5-7.5h-29.905v-9.173c0-4.142-3.358-7.5-7.5-7.5s-7.5 3.358-7.5 7.5v9.173h-33.196c-4.142 0-7.5 3.358-7.5 7.5s3.358 7.499 7.5 7.499z"/><path d="m466.239 83.532c4.142 0 7.5-3.358 7.5-7.5s-3.358-7.5-7.5-7.5c-14.918 0-27.419 11.777-30.494 27.462h-4.43v-24.197c0-4.142-3.358-7.5-7.5-7.5s-7.5 3.358-7.5 7.5v24.196h-4.32c-3.111-16.622-17.721-29.245-35.233-29.245-4.142 0-7.5 3.358-7.5 7.5s3.358 7.5 7.5 7.5c11.499 0 20.854 9.355 20.854 20.854s-9.355 20.854-20.854 20.854c-4.142 0-7.5 3.358-7.5 7.5s3.358 7.5 7.5 7.5c16.88 0 31.063-11.729 34.852-27.462h4.7v19.962c0 4.142 3.358 7.5 7.5 7.5s7.5-3.358 7.5-7.5v-19.962h4.43c3.075 15.685 15.576 27.462 30.494 27.462 4.142 0 7.5-3.358 7.5-7.5s-3.358-7.5-7.5-7.5c-8.947 0-16.226-8.955-16.226-19.962s7.28-19.962 16.227-19.962z"/></g></g></svg>