<svg id="Capa_1" enable-background="new 0 0 512 512" height="512" viewBox="0 0 512 512" width="512" xmlns="http://www.w3.org/2000/svg"><g><g><g><g><path d="m305.874 337.114 43.811-23.814 76.226 140.234c2.293 4.218-.686 9.369-5.486 9.485l-42.225 1.022c-2.066.05-3.981 1.091-5.147 2.798l-23.822 34.878c-2.708 3.965-8.65 3.663-10.943-.555l-76.226-140.234z" fill="#a2aee6"/></g></g><g><g><path d="m206.126 337.114-43.812-23.814-76.225 140.234c-2.293 4.218.686 9.369 5.486 9.485l42.225 1.022c2.066.05 3.981 1.091 5.147 2.798l23.822 34.878c2.708 3.965 8.65 3.663 10.943-.555l76.226-140.234z" fill="#a2aee6"/></g></g></g><g><g><g><path d="m420.426 463.021-14.876.359-75.718-139.283 19.855-10.796 76.227 140.231c2.294 4.221-.689 9.369-5.488 9.489z" fill="#8795de"/></g></g><g><g><path d="m249.934 360.923-76.226 140.241c-2.285 4.22-8.231 4.52-10.935.549l-9.169-13.429c.479-.449.888-.988 1.227-1.606l74.451-136.978z" fill="#8795de"/></g></g></g><g><circle cx="256" cy="202.897" fill="#fea613" r="195.414"/></g><g><path d="m451.415 202.893c0 107.924-87.491 195.415-195.415 195.415-27.497 0-53.668-5.677-77.404-15.934 18.358 5.717 37.874 8.79 58.108 8.79 107.925 0 195.415-87.491 195.415-195.415 0-80.417-48.579-149.49-117.992-179.472 79.54 24.744 137.288 98.935 137.288 186.616z" fill="#fb8801"/></g><g><circle cx="256" cy="202.897" fill="#fee45a" r="153.783"/></g><g><path d="m409.78 202.893c0 84.937-68.843 153.79-153.78 153.79-28.585 0-55.354-7.802-78.282-21.391 18.159 7.553 38.083 11.723 58.986 11.723 84.937 0 153.79-68.853 153.79-153.78 0-56.352-30.311-105.63-75.518-132.409 55.663 23.137 94.804 78.033 94.804 142.067z" fill="#fed402"/></g><g><path d="m256 0c-111.878 0-202.897 91.019-202.897 202.897 0 63.473 29.305 120.223 75.087 157.456l-10.772 19.796c-1.976 3.63-.634 8.175 2.996 10.15 3.631 1.975 8.174.633 10.15-2.996l9.711-17.846c23.162 16.142 49.828 27.582 78.613 32.924l-50.921 93.681-22.842-33.444c-2.518-3.685-6.685-5.95-11.145-6.057l-40.487-.98 20.463-37.646c1.974-3.631.63-8.175-3.001-10.149-3.633-1.973-8.175-.629-10.148 3.001l-21.293 39.174c-2.332 4.291-2.265 9.375.18 13.602 2.444 4.227 6.818 6.82 11.698 6.938l41.681 1.008 23.515 34.43c2.617 3.831 6.861 6.062 11.461 6.062.24 0 .482-.007.724-.019 4.876-.247 9.179-2.956 11.511-7.245l54.389-100.061c7.01.736 14.123 1.119 21.325 1.119 7.167 0 14.283-.379 21.328-1.113l54.385 100.055c2.332 4.289 6.635 6.998 11.512 7.245.242.012.483.019.724.019 4.6 0 8.844-2.231 11.461-6.062l23.516-34.43 41.68-1.008c4.881-.118 9.254-2.712 11.699-6.937 2.445-4.227 2.513-9.312.181-13.603l-48.647-89.497c28.132-22.806 49.527-52.457 62.256-86.483 1.448-3.871-.515-8.182-4.386-9.63-3.871-1.447-8.182.515-9.63 4.386-13.275 35.487-36.725 65.845-67.815 87.795-31.78 22.438-69.217 34.298-108.263 34.298-103.626 0-187.931-84.306-187.931-187.932s84.306-187.932 187.932-187.932 187.931 84.305 187.931 187.931c0 11.206-.993 22.428-2.95 33.355-.729 4.068 1.979 7.956 6.047 8.685 4.063.729 7.957-1.979 8.685-6.047 2.112-11.794 3.184-23.905 3.184-35.993 0-111.878-91.019-202.897-202.897-202.897zm115.746 369.552 46.761 86.027-40.486.98c-4.462.107-8.628 2.372-11.146 6.057l-22.843 33.443-50.907-93.654c28.136-5.189 54.822-16.292 78.621-32.853z"/><path d="m256 41.632c-88.922 0-161.266 72.343-161.266 161.265 0 88.923 72.344 161.266 161.266 161.266s161.265-72.343 161.265-161.266c0-88.922-72.343-161.265-161.265-161.265zm0 307.565c-80.67 0-146.3-65.63-146.3-146.3s65.63-146.299 146.3-146.299c80.669 0 146.299 65.629 146.299 146.299s-65.63 146.3-146.299 146.3z"/><path d="m238.783 176.99c4.133 0 7.483-3.35 7.483-7.483s-3.35-7.483-7.483-7.483h-28.138c-4.133 0-7.483 3.35-7.483 7.483v66.78c0 4.133 3.35 7.483 7.483 7.483h28.138c4.133 0 7.483-3.35 7.483-7.483s-3.35-7.483-7.483-7.483h-20.655v-18.424h18.58c4.133 0 7.483-3.35 7.483-7.483s-3.35-7.483-7.483-7.483h-18.58v-18.424z"/><path d="m177.832 197.902c2.63-3.738 4.181-8.287 4.181-13.194 0-12.677-10.313-22.991-22.991-22.991h-19.577c-4.133 0-7.483 3.35-7.483 7.483v67.394c0 1.991.793 3.898 2.203 5.303 1.403 1.396 3.301 2.18 5.279 2.18h.033s18.001-.08 22.962-.08c14.129 0 25.624-11.494 25.624-25.623.002-8.357-4.021-15.792-10.231-20.472zm-30.903-21.219h12.094c4.425 0 8.025 3.6 8.025 8.025s-3.6 8.024-8.025 8.024c-1.442 0-12.094.019-12.094.019zm15.512 52.349c-2.84 0-9.94.026-15.513.049v-21.345c1.621-.006 15.513-.019 15.513-.019 5.877 0 10.658 4.781 10.658 10.658 0 5.875-4.781 10.657-10.658 10.657z"/><path d="m298.698 196.407c-7.285-2.686-14.017-5.532-17.383-6.991-1.035-.448-1.83-1.039-2.298-1.706-1.037-1.479-1.273-3.47-.63-5.325.807-2.33 2.841-4.092 5.728-4.961 10.002-3.012 19.166 4.261 19.415 4.461 3.162 2.629 7.859 2.212 10.509-.941 2.659-3.164 2.251-7.884-.913-10.543-.621-.52-15.397-12.705-33.327-7.307-7.5 2.26-13.168 7.506-15.553 14.395-2.21 6.38-1.269 13.413 2.519 18.815 2.058 2.933 5.033 5.3 8.604 6.847 3.507 1.519 10.529 4.488 18.152 7.299 3.177 1.172 10.457 4.514 9.438 10.225-.74 4.148-5.693 8.439-12.7 8.439-6.96 0-13.667-2.816-17.941-7.532-2.776-3.063-7.508-3.293-10.57-.52-3.062 2.775-3.295 7.507-.52 10.57 7.063 7.795 17.916 12.448 29.031 12.448 13.746 0 25.283-8.737 27.433-20.774 1.609-9.025-2.534-20.828-18.994-26.899z"/><path d="m327.852 169.2c0 4.133 3.35 7.483 7.483 7.483h11.052v59.911c0 4.133 3.35 7.483 7.483 7.483s7.483-3.35 7.483-7.483v-59.911h11.201c4.133 0 7.483-3.35 7.483-7.483s-3.35-7.483-7.483-7.483h-37.219c-4.134 0-7.483 3.35-7.483 7.483z"/></g></g></svg>